<svg id="Layer_1" data-name="Layer 1" xmlns="http://www.w3.org/2000/svg" xmlns:xlink="http://www.w3.org/1999/xlink" viewBox="0 0 353 100"><defs><clipPath id="clip-path"><rect width="280" height="100" style="fill:none"/></clipPath></defs><title>logo</title><g id="NV_Logo_-_Black" data-name="NV Logo - Black"><g style="clip-path:url(#clip-path)"><polygon points="20 65.72 19.98 47.93 22.28 47.93 22.28 69.24 19.98 69.24 7.34 51.3 7.39 69.24 5.09 69.24 5.09 47.93 7.51 47.93 20 65.72" style="fill:#231f20"/><path d="M30.08,69.24H27.52l8.89-21.31h2.31l8.8,21.31H44.93l-2.47-6H32.53Zm7.4-18.63L33.25,61.29h8.49Z" style="fill:#231f20"/><polygon points="48.04 47.93 50.55 47.93 57.6 66.16 64.68 47.93 67.19 47.93 58.72 69.24 56.45 69.24 48.04 47.93" style="fill:#231f20"/><path d="M70.27,69.24H67.7l8.9-21.31h2.3l8.81,21.31H85.12l-2.48-6H72.71Zm7.39-18.63L73.43,61.29h8.5Z" style="fill:#231f20"/><g style="clip-path:url(#clip-path)"><path d="M92.75,47.93h5.56c3.33,0,4.89.41,6,1.1a6.73,6.73,0,0,1,2.91,5.73,6.8,6.8,0,0,1-1.27,4.17c-1.26,1.73-2.79,2.13-4.75,2.33l5.3,8h-2.59l-6-9.3h.69c1.5,0,3.57,0,4.73-1.1a5.19,5.19,0,0,0,1.61-3.91,5,5,0,0,0-2.1-4.12c-1.07-.69-2.39-.78-4.32-.78H95.14V69.24H92.75Z" style="fill:#231f20"/><path d="M112.52,47.93h5.56c3.34,0,4.89.41,6,1.1A6.75,6.75,0,0,1,127,54.76a6.86,6.86,0,0,1-1.27,4.17c-1.27,1.73-2.79,2.13-4.75,2.33l5.3,8h-2.59l-6-9.3h.69c1.5,0,3.57,0,4.72-1.1a5.19,5.19,0,0,0,1.61-3.91,5,5,0,0,0-2.1-4.12c-1.06-.69-2.39-.78-4.32-.78h-3.34V69.24h-2.39Z" style="fill:#231f20"/><path d="M133.17,69.24H130.6l8.9-21.31h2.3l8.81,21.31H148l-2.48-6h-9.93Zm7.39-18.63-4.23,10.68h8.49Z" style="fill:#231f20"/><polygon points="160.08 47.93 162.58 47.93 169.64 66.16 176.72 47.93 179.22 47.93 170.76 69.24 168.48 69.24 160.08 47.93" style="fill:#231f20"/><polygon points="183.08 47.93 194.88 47.93 194.88 50.03 185.44 50.03 185.44 57.43 194.82 57.43 194.82 59.53 185.44 59.53 185.44 67.13 194.88 67.13 194.88 69.24 183.08 69.24 183.08 47.93" style="fill:#231f20"/><polygon points="216.44 65.72 216.41 47.93 218.72 47.93 218.72 69.24 216.41 69.24 203.78 51.3 203.83 69.24 201.53 69.24 201.53 47.93 203.95 47.93 216.44 65.72" style="fill:#231f20"/><path d="M228.19,47.93v13.5a6.5,6.5,0,0,0,1,4.29,4.52,4.52,0,0,0,3.71,1.79,4.43,4.43,0,0,0,3.66-1.76c1-1.41,1-2.65,1-4.32V47.93h2.36v13.5c0,2.48-.28,4.93-2.41,6.57a7,7,0,0,1-4.61,1.61A7.19,7.19,0,0,1,228.22,68c-2.25-1.81-2.42-4.23-2.42-6.57V47.93Z" style="fill:#231f20"/><polygon points="247.04 47.93 258.85 47.93 258.85 50.03 249.4 50.03 249.4 57.43 258.79 57.43 258.79 59.53 249.4 59.53 249.4 67.13 258.85 67.13 258.85 69.24 247.04 69.24 247.04 47.93" style="fill:#231f20"/><path d="M266.85,63.31c.34,3.54,2.94,4.28,4.26,4.28a4.16,4.16,0,0,0,4.26-4.05c0-3-2.56-3.66-5-4.47-1.73-.51-5.44-1.61-5.44-5.64-.06-3.77,3.08-5.87,6.33-5.87a5.74,5.74,0,0,1,6,5.5h-2.36c-.26-1.38-1-3.49-3.77-3.49a3.67,3.67,0,0,0-3.89,3.66c0,2.59,2.07,3.23,5.3,4.32,2,.78,5.18,1.9,5.18,5.81,0,3.49-2.62,6.25-6.59,6.25-3.57,0-6.54-2.25-6.68-6.3Z" style="fill:#231f20"/><polygon points="105.98 85.8 112.29 85.8 112.29 86.85 107.24 86.85 107.24 90.54 112.26 90.54 112.26 91.59 107.24 91.59 107.24 95.39 112.29 95.39 112.29 96.44 105.98 96.44 105.98 85.8" style="fill:#231f20"/><path d="M116.57,93.48a2.23,2.23,0,0,0,2.28,2.14,2.17,2.17,0,0,0,2.28-2c0-1.49-1.37-1.82-2.7-2.23-.92-.25-2.91-.8-2.91-2.81s1.65-2.94,3.39-2.94a3,3,0,0,1,3.23,2.75h-1.26a2.06,2.06,0,0,0-4.09.09c0,1.29,1.1,1.61,2.83,2.15,1.08.39,2.77,1,2.77,2.91a3.22,3.22,0,0,1-3.52,3.12,3.29,3.29,0,0,1-3.58-3.15Z" style="fill:#231f20"/><polygon points="127.41 86.85 124.61 86.85 124.61 85.8 131.51 85.8 131.51 86.85 128.69 86.85 128.69 96.44 127.41 96.44 127.41 86.85" style="fill:#231f20"/><polygon points="141.57 86.82 139.27 86.82 139.27 85.8 142.84 85.8 142.84 96.44 141.57 96.44 141.57 86.82" style="fill:#231f20"/><path d="M150.74,96.44,153,93.35l.56-.75a3.11,3.11,0,0,1-1.45.38,3.58,3.58,0,0,1-3.68-3.6,3.84,3.84,0,0,1,4-3.77,3.94,3.94,0,0,1,3.08,1.27,3.69,3.69,0,0,1,.92,2.41,4.61,4.61,0,0,1-1,2.74l-3.25,4.41Zm4.44-7.22a2.57,2.57,0,0,0-2.71-2.56,2.64,2.64,0,1,0-.06,5.27,2.68,2.68,0,0,0,2.77-2.69Z" style="fill:#231f20"/><polygon points="166.14 85.8 166.14 86.75 161.42 96.44 160.04 96.44 164.82 86.82 159.65 86.82 159.65 85.8 166.14 85.8" style="fill:#231f20"/><path d="M170.09,88.32a2.88,2.88,0,0,1,3.08-2.71,2.72,2.72,0,0,1,3,2.62,2.48,2.48,0,0,1-1.57,2.24,3,3,0,0,1,2.3,2.85,3.44,3.44,0,0,1-3.74,3.31,4,4,0,0,1-3-1.3,3.32,3.32,0,0,1-.7-2h1.27a2.37,2.37,0,0,0,2.48,2.26,2.26,2.26,0,0,0,2.42-2.29A2.44,2.44,0,0,0,172.89,91h-.75V90.1h.56a1.91,1.91,0,0,0,2.16-1.74,1.64,1.64,0,0,0-1.71-1.7,1.74,1.74,0,0,0-1.82,1.66Z" style="fill:#231f20"/><path d="M131,31.55l1.05-.08,1-.19.9-.19.84-.23.62-.32.69-.37.5-.36.6-.38.55-.47.5-.45.43-.52.4-.57.71-1.29.47-1.54.32-1.65.17-1.65,0-1.66L140.81,18l-.12-1.42-.18-1.27-.13-1.3-.09-1.68V10.49l.05-1.9.09-1.78.14-1.53.2-1.16.24-.63-.44-.12-.49.08-.52.18-.48.38-.48.44-.36.53-.28.56-.13.62L137.54,6l-.28-.15L137,5.78l-.26,0-.25,0-.17.14-.16.12L136,6.3l-.11.51,0,.44.12.44.19.38.2.38.18.37.09.38,0,.4-1.16-.38-.73,0-.33.45v.63l.26.79.43.82.58.74.65.57.62.41.6.52.57.61.59.67.47.73.38.76.3.77.15.76-.26.23-.32,0h-.32l-.35-.19-.32-.21-.32-.24-.26-.26-.2-.25-.28-.38-.35-.26-.32-.19-.38-.15-.37,0-.4,0h-.44l-.43,0h-.47l-.48,0-.47-.11-.44-.15-.42-.2-.34-.17-.29-.27-.15-.25.44-.17.29-.26.21-.29,0-.34,0-.38-.21-.3-.27-.29-.41-.22-.38-.13h-.45l-.38.13-.34.19-.26.29-.16.4-.1.5.1.56.19.71.29.56.32.48.37.38.42.34.42.22.43.19.47.14.43.08.42.07.42.09.37.06.32.11.28.12.2.18.15.19-.16.52L135,20l0,.5V21l.12.42.15.38.22.36.32.28.36.25.43.11.4,0,.4-.1.36-.15.31-.25.23-.39.14-.48.1-.28.16-.31.21-.26.23-.19.28-.11h.25l.3.18.28.31,0,.74,0,.7-.09.71-.16.68-.2.67-.23.69-.31.65-.35.68-.18.33-.22.3-.21.32-.26.32-.27.33-.32.27-.35.33-.38.28-.43.26-.47.25-.52.25-.58.19-.64.2-.69.15-.74.14-.35.05-.46,0,.07-.09.08-.13.21-.27.19-.3.26-.33.23-.3.2-.36.18-.35.08-.34v-.42l-.08-.33-.2-.33-.24-.3-.32-.22L132,26l-.42-.11-.49,0h-.52l-.49.11-.41.15-.32.25-.26.34-.17.33-.09.42,0,.44.08.38.18.38.19.38.24.31.23.31L130,30l.18.23.07.1h-.6l-.57,0h-.29l-.28-.06-.81-.18-.72-.24-.66-.29-.62-.35-.54-.39-.47-.41-.43-.46-.37-.44-.31-.46-.27-.48-.23-.45-.18-.46-.12-.44-.07-.4-.07-.82.07-.76.19-.74.35-.63.47-.54.64-.4.76-.23.94,0,.48.12.38.21.29.33.15.32,0,.32-.08.3-.18.21-.34.06-.37.07-.33.13-.26.21-.16.26-.1.26,0,.27.18.18.35.15.52.07.52,0,.46,0,.46-.14.38-.2.35-.3.22-.37.17-.48.06-.55-.08-.57-.2-.58-.38-.54-.52-.48-.7-.42-.85-.31L125.5,19l-.72,0-.66.07-.64.24-.52.27-.49.32-.43.41-.38.45-.31.52-.3.56-.19.56-.18.63-.12.62-.08.65-.07.65-.16.66a6.4,6.4,0,0,1-.49,1.22c-.23.36-.4,1-2.28,2.25-1.38.94-4.57,1-4.57,1S89.48,31,88.27,31c-.11,0-.08.56-.08.56H131Z" style="fill:#231f20;fill-rule:evenodd"/><path d="M151.78,31.55l-1.05-.08-1-.19-.9-.19-.84-.23-.62-.32-.69-.37-.5-.36-.6-.38L145,29l-.5-.45-.42-.52-.41-.57-.7-1.29-.48-1.54-.32-1.65L142,21.29l0-1.66L142,18l.12-1.42.18-1.27.13-1.3.09-1.68V10.49l-.05-1.9-.09-1.78-.14-1.53-.19-1.16-.25-.63.44-.12.5.08.51.18.48.38.49.44.36.53.28.56.12.62.29-.14.28-.15.26-.09.26,0,.25,0,.17.14.16.12.15.26.11.51,0,.44-.12.44-.19.38-.19.38-.19.37-.08.38,0,.4,1.16-.38.73,0,.33.45v.63l-.25.79-.44.82-.58.74-.65.57-.62.41-.59.52-.58.61-.58.67-.48.73-.38.76-.3.77-.14.76.26.23.31,0h.32l.35-.19.32-.21.32-.24.26-.26.2-.25.29-.38.35-.26.32-.19.37-.15.37,0,.41,0h.43l.43,0h.47l.49,0,.46-.11.44-.15.43-.2.33-.17.3-.27.15-.25-.45-.17-.28-.26-.22-.29,0-.34,0-.38.22-.3.26-.29.41-.22.38-.13h.45l.38.13.34.19.26.29.16.4.1.5-.1.56-.19.71-.28.56-.32.48-.37.38-.43.34-.42.22-.43.19-.47.14-.42.08-.43.07-.42.09-.37.06-.31.11-.28.12-.21.18-.15.19.17.52.12.49,0,.5V21l-.11.42-.16.38-.21.36-.33.28-.36.25-.42.11-.41,0-.4-.1-.36-.15-.31-.25-.22-.39-.15-.48-.09-.28-.17-.31L144,20.6l-.23-.19-.28-.11h-.25l-.3.18-.28.31,0,.74,0,.7.09.71.16.68.2.67.23.69.31.65.35.68.19.33.21.3.21.32.26.32.27.33.32.27.36.33.37.28.43.26.47.25.52.25.58.19.64.2.69.15.74.14.35.05.46,0-.07-.09-.08-.13-.2-.27-.2-.3-.26-.33-.23-.3-.2-.36-.18-.35-.08-.34v-.42l.08-.33.21-.33.24-.3.32-.22.37-.24.42-.11.49,0h.53l.48.11.41.15.32.25.26.34.17.33.09.42,0,.44-.08.38-.17.38-.2.38-.24.31-.23.31-.22.29-.18.23-.07.1h.6l.57,0H154l.28-.06.82-.18.72-.24.65-.29.62-.35.54-.39.48-.41.42-.46.37-.44.31-.46.27-.48.23-.45.18-.46.12-.44.08-.4.07-.82-.07-.76-.2-.74-.35-.63-.47-.54-.64-.4-.76-.23-.94,0-.48.12-.38.21-.29.33-.14.32-.06.32.08.3.18.21.34.06.38.07.32.13.26.21.16.26.1.26,0,.27-.18.18-.35.15-.52.07-.52,0-.45,0-.47-.14-.38-.2-.35-.3-.22-.37-.17-.48-.06-.55.09-.57.19-.58.38-.54.52-.48.7-.42.86-.31,1.08-.14.71,0,.66.07.64.24.52.27.49.32.43.41.38.45.32.52.29.56.19.56.19.63.11.62.08.65.07.65.16.66a7.19,7.19,0,0,0,.49,1.22,5.7,5.7,0,0,0,2.28,2.25c1.38.94,4.57,1,4.57,1s23.43.84,24.64.84c.11,0,.09.56.09.56H151.78Z" style="fill:#231f20;fill-rule:evenodd"/></g></g></g></svg>